<svg xmlns="http://www.w3.org/2000/svg" width="24" height="24" viewBox="0 0 24 24" fill="none">
  <path d="M13.66 11C14.12 10.55 14.5 10.04 14.79 9.5H15V11H17V9.5H18V8H17V7H18V5.5H17V4H7V5.5H6V7H7V8H6V9.5H7V10.5H11.17C10.47 10.05 9.8 9.5 9.8 9.5H7V8H9.8C9.8 8 10.33 7.5 11.17 7H7V5.5H12.5C13.35 5.5 14.1 5.86 14.63 6.5H16.5V8H14.63C14.86 8.38 15 8.81 15 9.25C15 9.7 14.86 10.13 14.63 10.5H16.5V12H14.63C14.1 12.64 13.35 13 12.5 13H10V14.5H18V16H10V17.5H18V19H10V20.5H7V19H6V17.5H7V16H6V14.5H7V13H6V11.5H7V10.5H9.8C9.8 10.5 10.47 9.95 11.17 9.5H13.66V11Z" fill="#6DA544"/>
</svg>