<svg version="1.1" id="Layer_1" xmlns="http://www.w3.org/2000/svg" xmlns:xlink="http://www.w3.org/1999/xlink" x="0px" y="0px"
	 viewBox="0 0 512 512" style="enable-background:new 0 0 512 512;" xml:space="preserve">
<path style="fill:#3D6DEB;" d="M399.684,93.091h-52.714c-5.336-17.301-14.158-33.077-25.619-46.545h78.331
	c12.853,0,23.273-10.42,23.273-23.273S412.535,0,399.682,0H112.315C99.462,0,89.042,10.42,89.042,23.273c0,0.003,0,0.005,0,0.008
	c0,0.002,0,0.005,0,0.008c0,12.853,10.42,23.273,23.273,23.273h108.606c0.251,0,0.501-0.005,0.751-0.012
	c32.774,0.284,61.176,19.15,75.219,46.542H112.315c-12.853,0-23.273,10.42-23.273,23.273s10.42,23.273,23.273,23.273h193.572
	c-3.935,43.428-40.529,77.576-84.966,77.576H112.315c-12.853,0-23.273,10.42-23.273,23.273c0,0.002,0,0.005,0,0.008
	c0,0.002,0,0.005,0,0.008c0,12.853,10.42,23.273,23.273,23.273h108.606c0.251,0,0.501-0.005,0.751-0.012
	c46.708,0.403,84.582,38.527,84.582,85.33v139.636c0,12.853,10.42,23.273,23.273,23.273s23.273-10.42,23.273-23.273V349.091
	c0-45.005-22.674-84.798-57.184-108.606c32.512-22.43,54.5-59.051,56.938-100.848h47.132c12.853,0,23.273-10.42,23.273-23.273
	S412.538,93.091,399.684,93.091z"/>
</svg>