<svg width="32" height="32" viewBox="0 0 32 32" fill="none" xmlns="http://www.w3.org/2000/svg">
<rect width="32" height="32" rx="6" fill="#3B82F6"/>
<path d="M8 24V8h5.5c1.5 0 2.75.5 3.75 1.5s1.5 2.25 1.5 3.75-.5 2.75-1.5 3.75-2.25 1.5-3.75 1.5H11v5.5H8zm3-8.5h2.5c.5 0 .875-.125 1.125-.375s.375-.625.375-1.125-.125-.875-.375-1.125S14 12.5 13.5 12.5H11v3z" fill="white"/>
<path d="M20 24V8h5.5c1.5 0 2.75.5 3.75 1.5s1.5 2.25 1.5 3.75-.5 2.75-1.5 3.75-2.25 1.5-3.75 1.5H23v5.5h-3zm3-8.5h2.5c.5 0 .875-.125 1.125-.375s.375-.625.375-1.125-.125-.875-.375-1.125S26 12.5 25.5 12.5H23v3z" fill="white"/>
</svg>